<svg viewBox="0 0 135.297 120.36666" xmlns="http://www.w3.org/2000/svg">
    <defs>
        <style>.hex{fill:#42d3a5;} .line{fill:#fff;}</style>
    </defs>
    <path d="M133.605291 66.312792l-27.6913077 47.9628009c-2.1826121 3.7799055-6.2171779 6.1091806-10.5824021 6.1091806H39.9489658c-4.3652242 0-8.3984567-2.3292751-10.5824021-6.1091806L1.6765893 66.312792c-2.1826121-3.7799055-2.1826121-8.4384557 0-12.2196945L29.3665637 6.1316299C31.5505091 2.3503911 35.5837416.021116 39.9489658.021116h55.3826154c4.3652242 0 8.39979 2.3292751 10.5824021 6.1105139l27.6913077 47.9614676c2.1826121 3.7812388 2.1826121 8.439789 0 12.2196945"
          class="hex"/>
    <path d="M61.53275952 19.96761733c-1.41466463.03066923-2.66193345.92969675-3.14052148 2.26164345l-17.8355541 49.69575758-5.85535361-9.759556c-.6159846-1.02927427-1.72965676-1.6601585-2.92962676-1.6601585H.05149659c.04970976 2.00834979.5878153 4.00699982 1.62695933 5.80645483l.59373516 1.02727432h27.56531085l8.57008574 14.28264293c.62131447 1.0359741 1.73705657 1.66015849 2.9276268 1.66015849.1119972 0 .22197446-.00559986.33397166-.01757956 1.31466713-.1279968 2.43673908-1.00337492 2.88472788-2.24604385l17.25756855-48.0947976 18.95252617 46.4108397c.48531787 1.18667033 1.5956601 2.00194995 2.87292818 2.11124722 1.26926826.11332717 2.5074373-.50440739 3.1874203-1.59376016l15.14962126-24.28039297 8.8435789 11.5637109c.6479838.84530887 1.65345867 1.34176645 2.71473213 1.34176645h18.8235294l1.24996875-2.16594585c.84245894-1.45896352 1.35666609-3.0480238 1.54876128-4.6678833h-19.93350165l-10.8157296-14.14464637c-.68131296-.88930777-1.7675558-1.39116522-2.87692807-1.33786655-1.119972.05332866-2.14294643.6515037-2.7362316 1.60345991L84.56351375 70.56637232 64.76700867 22.0885843c-.5359866-1.3079673-1.82695433-2.15894603-3.2362191-2.12294693z"
          class="line"/>
</svg>
