<?xml version="1.0" encoding="UTF-8"?>
<svg xmlns="http://www.w3.org/2000/svg" viewBox="0 0 100.8178 89.7785">
    <path d="M99.5839,40.2844L78.9843,4.6049c-1.6451-2.8495-4.6855-4.6049-7.9759-4.6049H29.8093c-3.2903,0-6.3307,1.7554-7.9759,4.6049L1.2339,40.2844c-1.6452,2.8495-1.6452,6.3603,0,9.2098l20.5995,35.6795c1.6451,2.8495,4.6855,4.6049,7.9759,4.6049h41.1991c3.2903,0,6.3307-1.7554,7.9759-4.6049l20.5995-35.6795c1.6452-2.8495,1.6452-6.3602,0-9.2098Z" fill="#6abd93" stroke-width="0"/>
    <path d="M100.77,45.6266h-15.1378l-7.9634-10.0674c-.5039-.6372-1.2764-.9854-2.0977-.9453-.811.0444-1.5503.48-1.9814,1.1685l-10.5864,16.8926-14.8096-36.1436c-.3926-.9575-1.3804-1.5811-2.3667-1.5518-1.0342.022-1.9478.6787-2.2983,1.6514l-13.4019,37.1577-4.3755-6.9888c-.457-.73-1.2578-1.1733-2.1191-1.1733H.0478c.1077,1.3404.4909,2.6635,1.1861,3.8676l.6538,1.1324h20.3602l6.3682,10.1714c.4604.7349,1.2637,1.1733,2.1187,1.1733.0884,0,.1772-.0049.2666-.0142.9512-.1021,1.7612-.7378,2.0854-1.6377l12.9419-35.8838,14.1938,34.6406c.3555.8677,1.166,1.4629,2.1001,1.543.9351.0796,1.8335-.3696,2.3315-1.1631l11.291-18.0166,6.5161,8.2378c.4746.5996,1.1968.9492,1.9609.9492h14.5079l.6538-1.1324c.6952-1.204,1.0784-2.5272,1.1861-3.8676Z" fill="#fff" stroke-width="0"/>
</svg>
